<?xml version="1.0" encoding="UTF-8"?>
<svg version="1.1" xmlns="http://www.w3.org/2000/svg" width="500" height="500">
<path d="M0 0 C1.7634375 -0.02126953 1.7634375 -0.02126953 3.5625 -0.04296875 C7.03613815 0.1899229 9.76451979 0.93966998 13 2.1875 C13 2.8475 13 3.5075 13 4.1875 C13.66 4.1875 14.32 4.1875 15 4.1875 C15.02712325 7.06256421 15.04689851 9.93736908 15.0625 12.8125 C15.07087891 13.62074219 15.07925781 14.42898437 15.08789062 15.26171875 C15.09111328 16.05449219 15.09433594 16.84726563 15.09765625 17.6640625 C15.10289307 18.38674316 15.10812988 19.10942383 15.11352539 19.85400391 C15 22.1875 15 22.1875 14.53881836 24.83813477 C13.81891937 29.31312083 13.56138815 33.77971469 13.28125 38.30078125 C13.18704773 39.75426216 13.18704773 39.75426216 13.09094238 41.23710632 C12.89109566 44.32456127 12.69519856 47.41224795 12.5 50.5 C12.30447295 53.57701638 12.10801634 56.65396218 11.90905762 59.73075867 C11.78564162 61.64062918 11.66418384 63.55062763 11.54504395 65.46076965 C11.18422627 71.0605818 10.65990356 76.61478435 10 82.1875 C11.92005859 81.94580078 11.92005859 81.94580078 13.87890625 81.69921875 C21.09046369 80.98098678 28.30297791 81.00145123 35.54321289 81.00219727 C37.95671518 80.99998237 40.36977964 80.98168638 42.78320312 80.96289062 C44.32291512 80.95996104 45.86262926 80.95797334 47.40234375 80.95703125 C48.12107162 80.94984573 48.8397995 80.94266022 49.58030701 80.93525696 C53.28032695 80.95229258 54.83582715 81.07805144 58 83.1875 C60.32137692 88.92985343 60.94686642 95.05180557 60 101.1875 C57.47429367 104.60061667 56.00086696 105.85387768 52 107.1875 C50.01260082 107.29632826 48.0217885 107.34640559 46.03149414 107.36450195 C44.80334488 107.37733719 43.57519562 107.39017242 42.30982971 107.40339661 C40.968276 107.41156278 39.62671772 107.41900675 38.28515625 107.42578125 C37.27074368 107.43189454 37.27074368 107.43189454 36.23583794 107.43813133 C32.65861189 107.45896558 29.08142393 107.47328056 25.50415039 107.48266602 C21.81065531 107.49374538 18.11776021 107.52816927 14.42447758 107.56783772 C11.58229959 107.59397768 8.74026546 107.60235528 5.89797783 107.60594749 C4.53640106 107.61081769 3.17483089 107.62244423 1.81337166 107.64098549 C-0.09163789 107.66532363 -1.99693997 107.66199736 -3.90209961 107.6574707 C-4.98559189 107.66333694 -6.06908417 107.66920319 -7.18540955 107.67524719 C-10.71533286 107.06353824 -11.85817888 106.0162371 -14 103.1875 C-15.27091219 99.13787809 -15.11800186 95.12123462 -15.08178711 90.91821289 C-15.07872055 90.08685318 -15.07565399 89.25549347 -15.07249451 88.39894104 C-15.06534843 86.59613645 -15.05596312 84.79333966 -15.04459953 82.99055672 C-15.02720037 80.13663847 -15.01690724 77.28277629 -15.00868225 74.42881775 C-14.98423563 66.31520279 -14.94864937 58.20166345 -14.90405273 50.08813477 C-14.87726073 45.12335648 -14.86022392 40.15862179 -14.84918404 35.19378471 C-14.84297814 33.30275295 -14.83297768 31.41172967 -14.81910515 29.5207386 C-14.79987417 26.87583009 -14.79299081 24.23115069 -14.78881836 21.58618164 C-14.78005676 20.80627869 -14.77129517 20.02637573 -14.76226807 19.22283936 C-14.76973392 15.07416033 -15.18991933 11.92744313 -17 8.1875 C-17.35858516 6.86073492 -17.7018576 5.52914079 -18 4.1875 C-12.24151149 0.29205189 -6.82948723 0.03744236 0 0 Z " fill="#0B0B0B" transform="translate(230,168.8125)"/>
<path d="M0 0 C2.5625 2.375 2.5625 2.375 5 5 C5.99 5.66 6.98 6.32 8 7 C8 7.66 8 8.32 8 9 C8.69480469 9.268125 9.38960937 9.53625 10.10546875 9.8125 C14.33903915 11.54934939 18.43035285 13.57435602 22.55078125 15.5625 C35.00076101 20.75116654 49.33708701 20.76194773 62.015625 16.2890625 C66.12395479 14.51452215 70.00520234 12.44933859 73.85546875 10.171875 C76 9 76 9 78 9 C78 8.34 78 7.68 78 7 C79.49609375 5.78125 79.49609375 5.78125 81.4375 4.5 C84.22531847 2.7134637 84.22531847 2.7134637 86 0 C90.67802059 0.27517768 92.74638753 2.33193886 95.86328125 5.52734375 C97 7 97 7 97 9 C97.66 9 98.32 9 99 9 C99 9.66 99 10.32 99 11 C99.66 11 100.32 11 101 11 C101 11.66 101 12.32 101 13 C102.32 13.66 103.64 14.32 105 15 C104.72482232 19.67802059 102.66806114 21.74638753 99.47265625 24.86328125 C98 26 98 26 96 26 C96 26.66 96 27.32 96 28 C81.35098914 40.06597272 62.07548501 45.40226645 43.4375 45.375 C42.291604 45.37338867 41.14570801 45.37177734 39.96508789 45.37011719 C20.96437469 45.09701457 5.68112214 38.45408143 -10 28 C-10 27.34 -10 26.68 -10 26 C-10.556875 25.773125 -11.11375 25.54625 -11.6875 25.3125 C-14.74155835 23.57911553 -16.7825433 21.72430394 -19 19 C-18.8125 16.1875 -18.8125 16.1875 -18 14 C-17.01 13.67 -16.02 13.34 -15 13 C-15 12.34 -15 11.68 -15 11 C-14.34 11 -13.68 11 -13 11 C-13 10.34 -13 9.68 -13 9 C-12.34 9 -11.68 9 -11 9 C-10.773125 8.443125 -10.54625 7.88625 -10.3125 7.3125 C-7.64777649 2.61751097 -5.51523795 0 0 0 Z " fill="#0A0A0A" transform="translate(207,280)"/>
<path d="M0 0 C-1.36917929 2.73835859 -3.57565481 4.2066826 -5.88671875 6.14453125 C-9.78232109 9.56488451 -13.36945048 13.30290273 -17 17 C-17.66 17.66 -18.32 18.32 -19 19 C-18.67 17.35 -18.34 15.7 -18 14 C-17.01 13.67 -16.02 13.34 -15 13 C-15 12.34 -15 11.68 -15 11 C-14.34 11 -13.68 11 -13 11 C-13 10.34 -13 9.68 -13 9 C-12.34 9 -11.68 9 -11 9 C-10.773125 8.443125 -10.54625 7.88625 -10.3125 7.3125 C-7.64777649 2.61751097 -5.51523795 0 0 0 Z " fill="#606060" transform="translate(207,280)"/>
</svg>
